<svg width="300" height="300" viewBox="0 0 300 300" fill="none" xmlns="http://www.w3.org/2000/svg">
  <path fill-rule="evenodd" clip-rule="evenodd" d="M300 30V270C300 286.557 286.557 300 270 300H30C13.443 300 0 286.557 0 270V30C0 13.443 13.443 0 30 0H270C286.557 0 300 13.443 300 30Z" fill="url(#paint0_linear_1_9)"/>
  <path fill-rule="evenodd" clip-rule="evenodd" d="M300 239.188V270C300 286.557 286.557 300 270 300H213.533L111.262 197.729C119.387 205.097 128.969 211.436 140.207 215.662C160.879 223.45 187.221 224.187 220.429 210.812L220.613 211.753C220.777 212.807 222.046 213.923 223.765 213.247L229.281 211.098C231.174 210.382 231.185 208.929 230.908 207.987L238.011 205.214C238.809 204.907 241.285 202.993 239.157 199.984H239.136L234.766 193.312C234.111 192.585 233.098 192.309 232.208 192.667L226.6 194.827C225.935 194.09 224.973 193.814 224.031 194.182C222.199 194.898 220.357 195.625 218.526 196.341C217.932 196.566 217.768 197.006 217.881 197.58L218.239 199.329C207.903 200.445 190.434 199.892 174.787 187.602C167.869 182.178 161.381 174.503 155.967 163.767L105.613 189.429L97.666 182.976C115.82 173.725 133.985 164.474 152.14 155.222C150.963 152.173 149.817 148.867 145.897 134.079L87.048 160.415L79.951 153.319L144.137 124.593C143.216 116.265 140.7 92.351 140.801 81.591V81.581C140.785 80.444 140.69 79.884 140.291 79.478L300 239.188ZM66.863 127.926C67.626 128.625 68.911 128.74 70.219 128.164L70.669 127.97C71.056 129.592 71.493 131.295 71.978 133.041L66.863 127.926Z" fill="#3B808B"/>
  <path d="M140.801 81.591C140.78 80.097 140.627 79.595 139.829 79.135C139.071 78.633 137.925 78.623 136.83 79.104L63.147 110.655C62.052 111.136 61.019 112.098 60.466 113.141C59.914 114.185 59.852 115.29 60.282 116.078L66.433 127.376L66.514 127.509C67.18 128.564 68.684 128.84 70.219 128.164L70.669 127.97C72.593 136.034 75.745 146.125 79.951 153.319L144.137 124.593C143.216 116.263 140.698 92.336 140.801 81.581V81.591Z" fill="white"/>
  <path d="M145.897 134.079L84.086 161.741C87.719 168.628 92.201 175.935 97.666 182.976C115.82 173.725 133.985 164.474 152.14 155.222C150.963 152.173 149.817 148.867 145.897 134.079Z" fill="white"/>
  <path d="M239.136 199.984L234.766 193.312C234.111 192.585 233.098 192.309 232.208 192.667L226.6 194.827C225.935 194.09 224.973 193.814 224.031 194.182C222.199 194.898 220.357 195.625 218.526 196.341C217.932 196.566 217.768 197.006 217.881 197.58L218.239 199.329C207.903 200.445 190.434 199.892 174.787 187.602C167.869 182.178 161.381 174.503 155.967 163.767L103.857 190.324C113.385 200.793 125.348 210.075 140.207 215.662C160.879 223.45 187.221 224.187 220.429 210.812L220.613 211.753C220.777 212.807 222.046 213.923 223.765 213.247L229.281 211.098C231.174 210.382 231.185 208.929 230.908 207.987L238.011 205.214C238.809 204.907 241.285 202.993 239.157 199.984H239.136Z" fill="white"/>
  <defs>
    <linearGradient id="paint0_linear_1_9" x1="160.554" y1="0" x2="160.554" y2="300" gradientUnits="userSpaceOnUse">
      <stop stop-color="#BDDDEB"/>
      <stop offset="1" stop-color="#53A9D1"/>
    </linearGradient>
  </defs>
</svg>
